<svg width="68" height="68" viewBox="0 0 68 68" fill="none" xmlns="http://www.w3.org/2000/svg">
<path d="M56.524 35.7509C56.3312 34.7859 55.8709 33.9234 55.2261 33.2526C54.4863 32.4841 53.4946 31.9656 52.3969 31.8343C52.2198 31.8142 52.038 31.8018 51.8536 31.8018C50.3933 24.7056 44.3225 19.3832 37.0506 19.3832C29.7822 19.3832 23.7106 24.7056 22.2506 31.8018L16.3796 33.0811L15.7697 33.2162C13.7078 33.6657 12.1928 35.4682 12.0196 37.6187C12.004 37.7576 12 37.8966 12 38.0355V40.5453C12 41.2238 12.5273 41.7719 13.1805 41.7719H55.442C56.0951 41.7719 56.6227 41.2238 56.6227 40.5453V36.7562C56.6227 36.4131 56.5877 36.0777 56.524 35.7509Z" fill="#C25700"/>
<path d="M37.0506 23.0584C31.7497 23.0584 27.2796 26.7536 25.9023 31.8019H48.2014C46.8251 26.7536 42.3502 23.0584 37.0506 23.0584Z" fill="#F7B09E"/>
<path d="M37.0508 23.0584V31.8019H48.2017C46.8253 26.7536 42.3504 23.0584 37.0508 23.0584Z" fill="#F48056"/>
<path d="M27.9406 41.773C27.9406 44.1074 26.1189 46 23.8717 46C21.6245 46 19.8027 44.1074 19.8027 41.773C19.8027 39.4385 21.6245 37.5459 23.8717 37.5459C26.1189 37.5459 27.9406 39.4385 27.9406 41.773Z" fill="#31120D"/>
<path d="M25.0048 41.773C25.0048 42.4218 24.4987 42.9469 23.8745 42.9469C23.2502 42.9469 22.7441 42.4218 22.7441 41.773C22.7441 41.1242 23.2502 40.5991 23.8745 40.5991C24.4987 40.5991 25.0048 41.1242 25.0048 41.773Z" fill="#6D747B"/>
<path d="M51.7025 41.773C51.7025 44.1074 49.8806 46 47.6335 46C45.3863 46 43.5645 44.1074 43.5645 41.773C43.5645 39.4385 45.3863 37.5459 47.6335 37.5459C49.8806 37.5459 51.7025 39.4385 51.7025 41.773Z" fill="#31120D"/>
<path d="M48.761 41.773C48.761 42.4218 48.2545 42.9469 47.631 42.9469C47.0064 42.9469 46.5 42.4218 46.5 41.773C46.5 41.1242 47.0064 40.5991 47.631 40.5991C48.2545 40.5991 48.761 41.1242 48.761 41.773Z" fill="#6D747B"/>
<path d="M15.7696 33.2153C13.7077 33.6648 12.1927 35.4673 12.0195 37.6178H14.8056C15.6752 37.6178 16.3795 36.8866 16.3795 35.9829V33.0802L15.7696 33.2153Z" fill="#F1A415"/>
</svg>
