<svg width="68" height="68" viewBox="0 0 68 68" fill="none" xmlns="http://www.w3.org/2000/svg">
<path d="M45.9977 21.7128C45.6585 20.7123 44.7088 20 43.5896 20H24.9354C23.8162 20 22.8835 20.7123 22.5273 21.7128L19 31.8708V45.4375C19 46.3702 19.7631 47.1333 20.6958 47.1333H22.3917C23.3244 47.1333 24.0875 46.3702 24.0875 45.4375V43.7417H44.4375V45.4375C44.4375 46.3702 45.2006 47.1333 46.1333 47.1333H47.8292C48.7619 47.1333 49.525 46.3702 49.525 45.4375V31.8708L45.9977 21.7128ZM24.9354 38.6542C23.5279 38.6542 22.3917 37.518 22.3917 36.1104C22.3917 34.7029 23.5279 33.5667 24.9354 33.5667C26.343 33.5667 27.4792 34.7029 27.4792 36.1104C27.4792 37.518 26.343 38.6542 24.9354 38.6542ZM43.5896 38.6542C42.182 38.6542 41.0458 37.518 41.0458 36.1104C41.0458 34.7029 42.182 33.5667 43.5896 33.5667C44.9971 33.5667 46.1333 34.7029 46.1333 36.1104C46.1333 37.518 44.9971 38.6542 43.5896 38.6542ZM22.3917 30.175L24.9354 22.5438H43.5896L46.1333 30.175H22.3917Z" fill="#FF7300"/>
</svg>
