<?xml version="1.0" encoding="utf-8"?>
<!-- Generator: Adobe Illustrator 27.4.1, SVG Export Plug-In . SVG Version: 6.00 Build 0)  -->
<svg version="1.1" id="Layer_1" xmlns="http://www.w3.org/2000/svg" xmlns:xlink="http://www.w3.org/1999/xlink" x="0px" y="0px"
	 viewBox="0 0 160 160" enable-background="new 0 0 160 160" xml:space="preserve">
<g>
	<path fill="#FF7300" d="M79.792,49.373c-16.682,0-30.206,13.486-30.206,30.123s13.524,30.123,30.206,30.123
		c16.682,0,30.206-13.486,30.206-30.123S96.474,49.373,79.792,49.373z M79.792,104.021c-13.401,0-24.265-10.98-24.265-24.525
		s10.864-24.525,24.265-24.525s24.265,10.98,24.265,24.525S93.193,104.021,79.792,104.021z"/>
	<path fill="#FF7300" d="M103.977,77.585l-8.793,0.021L90.8,85.495L79.86,58.827L70.02,80.733l-14.463-0.03
		c0.058,1.207,0.205,2.39,0.429,3.545l16.324,0.034l7.403-16.478l10.605,25.852l6.953-12.512l6.727-0.016
		c0.035-0.54,0.059-1.084,0.059-1.633C104.057,78.852,104.025,78.216,103.977,77.585z"/>
</g>
<circle fill="none" stroke="#FF7300" stroke-width="5" stroke-linecap="round" stroke-linejoin="round" stroke-miterlimit="10" cx="137.598" cy="137.845" r="16.282"/>
<circle fill="none" stroke="#FF7300" stroke-width="5" stroke-linecap="round" stroke-linejoin="round" stroke-miterlimit="10" cx="21.937" cy="21.306" r="16.282"/>
<circle fill="none" stroke="#FF7300" stroke-width="5" stroke-linecap="round" stroke-linejoin="round" stroke-miterlimit="10" cx="137.598" cy="21.306" r="16.282"/>
<circle fill="none" stroke="#FF7300" stroke-width="5" stroke-linecap="round" stroke-linejoin="round" stroke-miterlimit="10" cx="21.937" cy="137.845" r="16.282"/>
<g>
	<path fill="none" stroke="#FF7300" stroke-width="5" stroke-linecap="round" stroke-linejoin="round" stroke-miterlimit="10" d="
		M98.045,27.557l33.686,33.686c2.434,2.434,4.274,5.234,5.533,8.222c-4.193-24.181-23.259-43.247-47.44-47.44
		C92.811,23.283,95.612,25.123,98.045,27.557z"/>
	<path fill="none" stroke="#FF7300" stroke-width="5" stroke-linecap="round" stroke-linejoin="round" stroke-miterlimit="10" d="
		M27.852,61.243l33.686-33.686c2.434-2.434,5.234-4.274,8.222-5.532c-24.181,4.193-43.247,23.259-47.44,47.44
		C23.579,66.477,25.419,63.676,27.852,61.243z"/>
	<path fill="none" stroke="#FF7300" stroke-width="5" stroke-linecap="round" stroke-linejoin="round" stroke-miterlimit="10" d="
		M131.731,97.75l-33.686,33.686c-2.434,2.434-5.234,4.274-8.222,5.533c24.181-4.193,43.247-23.259,47.44-47.44
		C136.005,92.515,134.164,95.316,131.731,97.75z"/>
	<path fill="none" stroke="#FF7300" stroke-width="5" stroke-linecap="round" stroke-linejoin="round" stroke-miterlimit="10" d="
		M61.538,131.435L27.852,97.75c-2.434-2.434-4.274-5.234-5.533-8.222c4.193,24.181,23.259,43.247,47.44,47.44
		C66.772,135.709,63.972,133.869,61.538,131.435z"/>
</g>
</svg>
