<?xml version="1.0" encoding="utf-8"?>
<!-- Generator: Adobe Illustrator 27.4.1, SVG Export Plug-In . SVG Version: 6.00 Build 0)  -->
<svg version="1.1" id="Layer_1" xmlns="http://www.w3.org/2000/svg" xmlns:xlink="http://www.w3.org/1999/xlink" x="0px" y="0px"
	 viewBox="0 0 160 160" enable-background="new 0 0 160 160" xml:space="preserve">
<g>
	<g>
		<path fill="none" stroke="#FF7300" stroke-width="5" stroke-linejoin="round" stroke-miterlimit="10" d="M124.999,104.271
			c-3.058-10.395-12.671-17.984-24.056-17.984H63.855c-13.847,0-25.072,11.225-25.072,25.072v29.891
			c0,6.669,5.406,12.075,12.075,12.075h63.082c6.669,0,12.075-5.406,12.075-12.075v-7.654"/>
		
			<circle fill="none" stroke="#FF7300" stroke-width="5" stroke-linecap="round" stroke-linejoin="round" stroke-miterlimit="10" cx="81.906" cy="61.519" r="21.382"/>
	</g>
</g>
<path fill="none" stroke="#FF7300" stroke-width="5" stroke-linecap="round" stroke-linejoin="round" stroke-miterlimit="10" d="
	M127.129,100.899l5.387,10.914c0.181,0.366,0.53,0.62,0.935,0.679l12.045,1.75c1.018,0.148,1.425,1.399,0.688,2.117l-8.716,8.496
	c-0.293,0.285-0.426,0.696-0.357,1.099l2.057,11.996c0.174,1.014-0.89,1.787-1.801,1.309l-10.773-5.664
	c-0.362-0.19-0.794-0.19-1.155,0l-10.773,5.664c-0.911,0.479-1.975-0.295-1.801-1.309l2.057-11.996
	c0.069-0.403-0.064-0.814-0.357-1.099l-8.716-8.496c-0.737-0.718-0.33-1.969,0.688-2.117l12.045-1.75
	c0.404-0.059,0.754-0.313,0.935-0.679l5.387-10.914C125.358,99.977,126.673,99.977,127.129,100.899z"/>
<g>
	<g>
		<path fill="none" stroke="#FF7300" stroke-width="5" stroke-linecap="round" stroke-linejoin="round" stroke-miterlimit="10" d="
			M58.309,62.06H26.361c-11.928,0-21.597,9.669-21.597,21.597v25.748c0,5.744,4.657,10.401,10.401,10.401h22.963"/>
		
			<circle fill="none" stroke="#FF7300" stroke-width="5" stroke-linecap="round" stroke-linejoin="round" stroke-miterlimit="10" cx="41.91" cy="40.725" r="18.418"/>
	</g>
</g>
<g>
	<g>
		<path fill="none" stroke="#FF7300" stroke-width="5" stroke-linecap="round" stroke-linejoin="round" stroke-miterlimit="10" d="
			M130.275,104.838h15.32c5.744,0,10.401-4.657,10.401-10.401v-6.593"/>
		<path fill="none" stroke="#FF7300" stroke-width="5" stroke-linecap="round" stroke-linejoin="round" stroke-miterlimit="10" d="
			M155.995,87.844V68.689c0-11.928-9.669-21.597-21.597-21.597h-31.947c-1.28,0-2.534,0.111-3.753,0.325"/>
		
			<circle fill="none" stroke="#FF7300" stroke-width="5" stroke-linecap="round" stroke-linejoin="round" stroke-miterlimit="10" cx="118" cy="25.757" r="18.418"/>
	</g>
</g>
</svg>
