<?xml version="1.0" encoding="utf-8"?>
<!-- Generator: Adobe Illustrator 27.4.1, SVG Export Plug-In . SVG Version: 6.00 Build 0)  -->
<svg version="1.1" id="Layer_1" xmlns="http://www.w3.org/2000/svg" xmlns:xlink="http://www.w3.org/1999/xlink" x="0px" y="0px"
	 viewBox="0 0 160 160" enable-background="new 0 0 160 160" xml:space="preserve">
<path fill="none" stroke="#FF7300" stroke-width="5" stroke-linecap="round" stroke-linejoin="round" stroke-miterlimit="10" d="
	M25.546,99.653C7.058,74.469,7.058,57.99,7.058,53.883c0-21.84,17.704-39.544,39.544-39.544c14.069,0,26.421,7.347,33.431,18.413
	h0.38c7.009-11.066,19.362-18.413,33.431-18.413c21.84,0,39.544,17.704,39.544,39.544c0,5.438,0,32.555-42.888,72.846
	c-21.847,20.525-30.276,24.94-30.276,24.94s-3.2-1.676-10.766-7.763"/>
<path fill="none" stroke="#FF7300" stroke-width="5" stroke-linecap="round" stroke-linejoin="round" stroke-miterlimit="10" d="
	M25.546,99.653c2.66-9.962,6.835-22.496,9.405-29.974c1.255-3.653,5.138-5.691,8.858-4.649h0c4.07,1.139,6.32,5.49,4.899,9.47
	l-3.92,10.977c-0.117,0.327,0.296,0.582,0.536,0.331l35.394-37.068c2.968-3.108,7.881-3.26,11.035-0.342l0,0
	c3.203,2.964,3.383,7.968,0.401,11.154L66.019,87.466l31.786-33.953c3.022-3.228,8.096-3.375,11.299-0.327l0,0
	c3.183,3.028,3.312,8.062,0.288,11.249L78.161,97.349l22.353-23.557c3.062-3.227,8.162-3.36,11.387-0.295l0,0
	c3.205,3.045,3.356,8.104,0.339,11.335l-22.503,24.094l14.396-15.414c2.66-2.848,7.127-2.99,9.963-0.317l0,0
	c2.786,2.626,2.961,6.998,0.39,9.836c-7.451,8.223-21.919,24.035-28.126,29.739c-5.308,4.878-11.08,8.536-16.588,10.744"/>
</svg>
