<?xml version="1.0" encoding="utf-8"?>
<!-- Generator: Adobe Illustrator 27.4.1, SVG Export Plug-In . SVG Version: 6.00 Build 0)  -->
<svg version="1.1" id="Layer_1" xmlns="http://www.w3.org/2000/svg" xmlns:xlink="http://www.w3.org/1999/xlink" x="0px" y="0px"
	 viewBox="0 0 160 160" enable-background="new 0 0 160 160" xml:space="preserve">
<g>
	<path fill="none" stroke="#FF7300" stroke-width="5" stroke-linecap="round" stroke-linejoin="round" stroke-miterlimit="10" d="
		M78.708,48.988l7.845,7.53c3.15,3.023,3.201,8.044,0.114,11.132l0,0c-3.055,3.055-8.013,3.041-11.051-0.032L56.437,48.219
		c-2.903-2.903-2.903-7.611,0-10.514l0,0c1.422-1.422,3.282-2.15,5.151-2.177"/>
	<path fill="none" stroke="#FF7300" stroke-width="5" stroke-linecap="round" stroke-linejoin="round" stroke-miterlimit="10" d="
		M63.633,80.392L44.296,61.055c-3.449-3.449-3.449-9.04,0-12.489l0,0c3.449-3.449,9.04-3.449,12.489,0l19.337,19.337
		c3.277,3.277,3.463,8.53,0.427,12.031l0,0C73.191,83.805,67.256,84.015,63.633,80.392z"/>
	<path fill="none" stroke="#FF7300" stroke-width="5" stroke-linecap="round" stroke-linejoin="round" stroke-miterlimit="10" d="
		M59.405,87.159L59.405,87.159c3.036-3.036,3.036-7.959,0-10.995L43.502,60.261c-3.01-3.01-7.89-3.01-10.9,0l0,0
		c-2.997,2.997-3.012,7.853-0.032,10.868l15.808,15.997C51.408,90.194,56.356,90.208,59.405,87.159z"/>
	<path fill="none" stroke="#FF7300" stroke-width="5" stroke-linecap="round" stroke-linejoin="round" stroke-miterlimit="10" d="
		M44.015,94.398L44.015,94.398c3.203-3.203,3.203-8.397,0-11.601l-8.737-8.737c-3.137-3.137-8.222-3.137-11.359,0l0,0
		c-3.075,3.075-3.144,8.04-0.155,11.2l8.492,8.976C35.431,97.591,40.749,97.664,44.015,94.398z"/>
	
		<line fill="none" stroke="#FF7300" stroke-width="5" stroke-linejoin="round" stroke-miterlimit="10" x1="32.256" y1="94.236" x2="14.738" y2="112.642"/>
	
		<line fill="none" stroke="#FF7300" stroke-width="5" stroke-linejoin="round" stroke-miterlimit="10" x1="122.962" y1="97.847" x2="142.922" y2="116.957"/>
	<path fill="none" stroke="#FF7300" stroke-width="5" stroke-linecap="round" stroke-linejoin="round" stroke-miterlimit="10" d="
		M90.548,37.148c0,0-1.633-5.677-8.026-5.677H64.82c-1.691,0-3.138,1.336-3.138,3.027c-0.002,7.047,4.14,14.079,14.062,14.079"/>
</g>
<path fill="none" stroke="#FF7300" stroke-width="5" stroke-linecap="round" stroke-linejoin="round" stroke-miterlimit="10" d="
	M78.708,48.988l11.84-11.84c3.223-3.223,8.449-3.223,11.672,0l0,0c3.223,3.223,3.223,8.449,0,11.672l-2.155,2.155l1.279-1.392
	c3.236-3.522,8.754-3.639,12.136-0.257l0,0c3.283,3.283,3.283,8.606,0,11.889l-0.469,0.469l1.224-0.976
	c3.306-2.635,8.063-2.367,11.052,0.622l0,0c2.994,2.994,3.257,7.761,0.611,11.066l-1.06,1.324l3.473-2.142
	c3.009-1.856,6.905-1.358,9.351,1.194l0,0c2.821,2.945,2.772,7.605-0.112,10.489c0,0-27.095,31.165-37.963,32.763
	c-10.868,1.598-13.624-0.639-20.876,2.877c-3.977,1.928-18.137,15.295-30.114,26.976l-0.001,0.003
	C24.014,134.141,7.034,109.053,7.034,80C7.034,39.702,39.702,7.034,80,7.034S152.966,39.702,152.966,80
	c0,32.027-20.634,59.234-49.333,69.054l-0.001-0.001c-5.602-5.667-12.355-12.491-15.295-15.431
	c-8.106-8.106-19.294-7.049-19.294-7.049"/>
</svg>
