<svg width="25" height="24" viewBox="0 0 25 24" fill="none" xmlns="http://www.w3.org/2000/svg">
<path d="M13.9128 17.8757C13.8996 17.8757 13.8856 17.8757 13.8723 17.8743C13.5792 17.8566 13.3295 17.6548 13.2522 17.373L11.0367 9.27756L9.90246 13.0537C9.81555 13.3421 9.54894 13.5403 9.24622 13.5403H4.99649C4.61792 13.5403 4.31152 13.235 4.31152 12.8577C4.31152 12.4805 4.61792 12.1752 4.99649 12.1752H8.73655L10.4114 6.60086C10.4983 6.31169 10.7649 6.11426 11.0676 6.11426C11.0706 6.11426 11.0728 6.11426 11.0765 6.11426C11.3821 6.11793 11.648 6.3227 11.7283 6.61701L14.0402 15.064L15.0419 12.6009C15.1465 12.3432 15.3977 12.1744 15.6768 12.1744H19.0817C19.4603 12.1744 19.7667 12.4798 19.7667 12.857C19.7667 13.2343 19.4603 13.5396 19.0817 13.5396H16.1379L14.5477 17.4493C14.4424 17.7077 14.1905 17.8757 13.9136 17.8757H13.9128Z" fill="#F14E23"/>
<path d="M12.0377 23.9912C5.40018 23.9912 0 18.6099 0 11.9956C0 5.38128 5.40018 0 12.0377 0C18.6753 0 24.0762 5.38128 24.0762 11.9956C24.0762 18.6099 18.676 23.9912 12.0377 23.9912ZM12.0377 1.36367C6.15512 1.36367 1.3692 6.13284 1.3692 11.9949C1.3692 17.8569 6.15512 22.6261 12.0377 22.6261C17.9203 22.6261 22.7062 17.8569 22.7062 11.9949C22.7062 6.13284 17.9203 1.36367 12.0377 1.36367Z" fill="#F14E23"/>
</svg>
