<svg width="97" height="24" viewBox="0 0 97 24" fill="none" xmlns="http://www.w3.org/2000/svg">
<g clip-path="url(#clip0_4217_4096)">
<path d="M13.9245 17.8865C13.9113 17.8865 13.8973 17.8865 13.884 17.885C13.5909 17.8674 13.3412 17.6656 13.2639 17.3837L11.0484 9.2883L9.91418 13.0645C9.82727 13.3529 9.56065 13.5511 9.25794 13.5511H5.00821C4.62964 13.5511 4.32324 13.2457 4.32324 12.8685C4.32324 12.4912 4.62964 12.1859 5.00821 12.1859H8.74827L10.4231 6.6116C10.51 6.32243 10.7767 6.125 11.0794 6.125C11.0823 6.125 11.0845 6.125 11.0882 6.125C11.3939 6.12867 11.6597 6.33344 11.74 6.62775L14.052 15.0747L15.0536 12.6116C15.1582 12.354 15.4094 12.1852 15.6885 12.1852H19.0935C19.472 12.1852 19.7784 12.4905 19.7784 12.8678C19.7784 13.245 19.472 13.5503 19.0935 13.5503H16.1496L14.5594 17.46C14.4541 17.7184 14.2022 17.8865 13.9253 17.8865H13.9245Z" fill="#F14E23"/>
<path d="M12.0494 24.0019C5.4119 24.0019 0.0117188 18.6207 0.0117188 12.0063C0.0117188 5.39203 5.4119 0.0107422 12.0494 0.0107422C18.687 0.0107422 24.0879 5.39203 24.0879 12.0063C24.0879 18.6207 18.6877 24.0019 12.0494 24.0019ZM12.0494 1.37441C6.16684 1.37441 1.38091 6.14359 1.38091 12.0056C1.38091 17.8676 6.16684 22.6368 12.0494 22.6368C17.932 22.6368 22.718 17.8676 22.718 12.0056C22.718 6.14359 17.932 1.37441 12.0494 1.37441Z" fill="#F14E23"/>
<g style="mix-blend-mode:difference">
<path d="M34.7251 20.944L29.9082 3.24121H32.7703L35.3334 13.3873C35.4925 14.0133 35.6398 14.6629 35.7746 15.3359C35.9094 16.0097 36.0427 16.69 36.1745 17.3792C36.3056 18.0684 36.4308 18.7575 36.5502 19.4467H36.1443C36.2718 18.7575 36.4029 18.0684 36.5376 17.3792C36.6724 16.69 36.8116 16.0089 36.9552 15.3359C37.0981 14.6629 37.2535 14.0133 37.42 13.3873L40.0553 3.24121H43.036L45.6469 13.3873C45.8141 14.0133 45.9688 14.6629 46.1117 15.3359C46.2546 16.0097 46.396 16.69 46.5352 17.3792C46.6737 18.0684 46.807 18.7575 46.9344 19.4467H46.5057C46.6324 18.7575 46.7598 18.0684 46.8873 17.3792C47.0139 16.69 47.1509 16.0089 47.299 15.3359C47.4455 14.6629 47.5914 14.0133 47.7343 13.3873L50.2974 3.24121H53.183L48.3426 20.944H45.2072L42.3819 10.453C42.1669 9.62947 41.968 8.73405 41.7861 7.76818C41.6027 6.80158 41.4164 5.74103 41.2256 4.58433H41.8458C41.6469 5.69332 41.4665 6.71938 41.3029 7.66103C41.1402 8.60341 40.9354 9.53479 40.6887 10.453L37.8752 20.944H34.728H34.7251Z" fill="white"/>
<path d="M60.0808 21.2412C58.7536 21.2412 57.6009 21.0313 56.6236 20.6115C55.6455 20.1917 54.8802 19.592 54.3278 18.8119C53.7754 18.0317 53.4713 17.1032 53.416 16.0258H56.1463C56.2023 16.6673 56.41 17.1979 56.7723 17.6177C57.134 18.0375 57.6046 18.3502 58.1857 18.5564C58.7654 18.7627 59.3936 18.8654 60.069 18.8654C60.8247 18.8654 61.4942 18.7487 62.0783 18.5153C62.6623 18.2819 63.1256 17.9487 63.4673 17.5172C63.8091 17.0856 63.98 16.5843 63.98 16.0141C63.98 15.4988 63.8312 15.0775 63.5329 14.7487C63.2346 14.4199 62.8332 14.1469 62.3287 13.9289C61.8242 13.7109 61.2489 13.5186 60.6059 13.3528L58.5312 12.7825C57.0765 12.3942 55.9423 11.8203 55.127 11.0599C54.3124 10.2996 53.9051 9.31314 53.9051 8.1014C53.9051 7.07975 54.1813 6.18727 54.7337 5.4225C55.286 4.65846 56.0373 4.0647 56.9867 3.64048C57.9368 3.21699 59.0077 3.00488 60.2001 3.00488C61.3926 3.00488 62.4878 3.21699 63.4136 3.64048C64.3394 4.0647 65.0663 4.64452 65.5959 5.3814C66.124 6.11828 66.4002 6.95718 66.4245 7.9003H63.7774C63.6898 7.09222 63.3149 6.4669 62.6513 6.02286C61.9869 5.57956 61.151 5.35718 60.1412 5.35718C59.426 5.35718 58.8037 5.468 58.2749 5.68965C57.746 5.9113 57.3373 6.21809 57.0471 6.61002C56.7569 7.00195 56.6118 7.44745 56.6118 7.94653C56.6118 8.50873 56.7849 8.96231 57.1303 9.30727C57.4765 9.65222 57.8978 9.92525 58.3942 10.1271C58.8906 10.3289 59.3656 10.4897 59.8193 10.6078L61.548 11.0592C62.1121 11.2016 62.694 11.3939 63.295 11.6353C63.8953 11.8775 64.4491 12.1902 64.9581 12.5741C65.467 12.9586 65.878 13.4335 66.1925 13.9994C66.5062 14.566 66.6631 15.2493 66.6631 16.0486C66.6631 17.0467 66.4046 17.9377 65.8883 18.7216C65.3712 19.5062 64.6222 20.1219 63.6404 20.5697C62.6586 21.0166 61.4721 21.2412 60.0815 21.2412H60.0808Z" fill="white"/>
<path d="M75.835 21.1815C74.3 21.1815 72.9272 20.819 71.7156 20.0945C70.5033 19.3701 69.5495 18.3287 68.8535 16.9701C68.1582 15.6116 67.8105 13.9903 67.8105 12.1048C67.8105 10.2193 68.1582 8.58629 68.8535 7.22776C69.5487 5.86923 70.5033 4.82556 71.7156 4.09675C72.9272 3.36794 74.3 3.00391 75.835 3.00391C77.3699 3.00391 78.7376 3.36794 79.9418 4.09675C81.146 4.82556 82.0954 5.86923 82.7914 7.22776C83.4867 8.58629 83.8343 10.212 83.8343 12.1048C83.8343 13.9977 83.486 15.6116 82.7914 16.9701C82.0954 18.3287 81.1453 19.3701 79.9418 20.0945C78.7376 20.8197 77.3684 21.1815 75.835 21.1815ZM75.835 18.7103C76.844 18.7103 77.7484 18.4593 78.5468 17.9558C79.3452 17.4531 79.9779 16.7081 80.4426 15.7224C80.9074 14.736 81.1394 13.5301 81.1394 12.1048C81.1394 10.6795 80.9074 9.44941 80.4426 8.46372C79.9779 7.4773 79.3452 6.73308 78.5468 6.22959C77.7484 5.72684 76.844 5.4751 75.835 5.4751C74.8259 5.4751 73.9075 5.72904 73.1047 6.23547C72.3019 6.74262 71.6677 7.48904 71.203 8.47547C70.7382 9.46115 70.5062 10.6714 70.5062 12.1048C70.5062 13.5382 70.7382 14.7345 71.203 15.7166C71.6677 16.6986 72.3019 17.4435 73.1047 17.95C73.9075 18.4571 74.8171 18.7103 75.835 18.7103Z" fill="white"/>
<path d="M84.9462 20.9437V18.9834L90.979 12.7698C91.5992 12.1202 92.1155 11.5463 92.5287 11.0472C92.9419 10.5481 93.2564 10.0696 93.4707 9.60941C93.6858 9.14996 93.7933 8.65895 93.7933 8.13638C93.7933 7.54262 93.6563 7.0318 93.3816 6.60391C93.1076 6.17602 92.7334 5.84794 92.2606 5.61822C91.7877 5.38849 91.2493 5.27326 90.6447 5.27326C90.04 5.27326 89.4684 5.40244 88.9993 5.65932C88.5308 5.9162 88.1685 6.2795 87.9144 6.74629C87.6603 7.21381 87.5329 7.76427 87.5329 8.39767H84.9219C84.9219 7.32097 85.1716 6.37638 85.6731 5.56391C86.174 4.75216 86.8575 4.12244 87.7236 3.67473C88.5898 3.22776 89.5796 3.00391 90.6925 3.00391C91.8054 3.00391 92.8122 3.22556 93.6673 3.66886C94.5217 4.1129 95.1912 4.71253 95.6758 5.46923C96.1605 6.22592 96.4035 7.08317 96.4035 8.0417C96.4035 8.69125 96.2827 9.32464 96.0404 9.94262C95.7981 10.5606 95.3724 11.2571 94.7648 12.0336C94.1571 12.8101 93.3006 13.7525 92.1958 14.8615L88.7142 18.4857V18.6281H96.679V20.9452H84.9469L84.9462 20.9437Z" fill="white"/>
</g>
</g>
<defs>
<clipPath id="clip0_4217_4096">
<rect width="97" height="24" fill="white"/>
</clipPath>
</defs>
</svg>
